<svg width="128" height="128" viewBox="0 0 128 128" fill="none" xmlns="http://www.w3.org/2000/svg">
  <!-- 背景 -->
  <rect width="128" height="128" rx="28" fill="#5851D1"/>
  
  <!-- 主体：扑克牌形状 -->
  <path d="
    M 32 24
    H 96
    C 100.418 24 104 27.582 104 32
    V 96
    C 104 100.418 100.418 104 96 104
    H 32
    C 27.582 104 24 100.418 24 96
    V 32
    C 24 27.582 27.582 24 32 24
    Z
  "
  fill="#FFFFFF"
  stroke="#6E66FF"
  stroke-width="2"
  />

  <!-- J字母 -->
  <path d="
    M 80 44
    V 74
    C 80 78.418 76.418 82 72 82
    H 56
    C 51.582 82 48 78.418 48 74
  "
  stroke="#5851D1"
  stroke-width="12"
  stroke-linecap="round"
  />

  <!-- 右上角的A -->
  <path d="
    M 72 34
    L 82 48
    H 78
    L 72 38
    L 66 48
    H 62
    L 72 34
    Z
  "
  fill="#FF4B6E"
  />

  <!-- 左下角的A -->
  <path d="
    M 46 80
    L 56 94
    H 52
    L 46 84
    L 40 94
    H 36
    L 46 80
    Z
  "
  fill="#FF4B6E"
  transform="rotate(180 46 87)"
  />
</svg> 